<?xml version="1.0" encoding="utf-8"?>
<!-- Generator: Adobe Illustrator 16.0.0, SVG Export Plug-In . SVG Version: 6.00 Build 0)  -->
<!DOCTYPE svg PUBLIC "-//W3C//DTD SVG 1.1//EN" "http://www.w3.org/Graphics/SVG/1.1/DTD/svg11.dtd">
<svg version="1.1" id="Calque_1" xmlns="http://www.w3.org/2000/svg" xmlns:xlink="http://www.w3.org/1999/xlink" x="0px" y="0px"
	 width="128.673px" height="128.82px" viewBox="0 0 128.673 128.82" enable-background="new 0 0 128.673 128.82"
	 xml:space="preserve">
<path fill-rule="evenodd" clip-rule="evenodd" fill="#333333" d="M64.812,0.14c19.162-0.004,38.323-0.053,57.484,0.056
	c2.467,0.015,6.025-1.429,6.35,3.311c0.265,3.89-1.361,5.495-5.202,5.408c-2.976-0.066-2.763,2.283-2.771,4.296
	c-0.03,7.831-0.033,15.662-0.062,23.493c-0.081,21.827-0.311,43.655-0.178,65.481c0.045,7.386-2.343,13.021-8.962,16.491
	c-2.522,1.322-2.923,3.382-2.824,5.845c0.096,2.368-0.251,4.33-3.382,4.296c-2.698-0.03-5.337-0.189-5.209-3.721
	c0.137-3.783-1.848-4.312-4.99-4.299c-20.494,0.083-40.988,0.081-61.483,0.002c-3.112-0.012-5.159,0.458-5.014,4.271
	c0.136,3.521-2.475,3.718-5.188,3.749c-3.114,0.036-3.555-1.891-3.395-4.272c0.186-2.77-0.746-4.633-3.314-6.073
	c-6.086-3.413-8.486-8.783-8.473-15.79c0.058-29.325-0.168-58.65-0.199-87.976C7.998,11.206,7.998,8.452,3.18,8.644
	c-3.252,0.129-3.141-2.728-3.179-5.136c-0.056-3.579,2.473-3.357,4.828-3.359C24.823,0.138,44.818,0.143,64.812,0.14z
	 M64.261,72.839c-14.14,0-28.281,0.101-42.419-0.067c-3.796-0.045-5.399,0.952-5.257,5.048c0.276,7.975,0.025,15.967,0.101,23.951
	c0.072,7.57,2.729,10.318,10.219,10.336c24.953,0.058,49.905,0.058,74.857-0.002c7.317-0.017,10.116-2.959,10.179-10.438
	c0.066-7.818-0.165-15.644,0.093-23.453c0.136-4.083-1.149-5.524-5.354-5.46C92.542,72.972,78.401,72.837,64.261,72.839z
	 M64.292,32.134c14.332,0,28.665-0.07,42.997,0.052c3.378,0.029,4.879-0.989,4.725-4.562c-0.217-4.991-0.137-9.999-0.034-14.996
	c0.057-2.813-1.171-3.812-3.903-3.808c-29.165,0.046-58.33,0.056-87.494-0.011c-3.165-0.007-4.017,1.436-3.944,4.285
	c0.118,4.664,0.25,9.347-0.041,13.994c-0.252,4.026,1.315,5.168,5.199,5.117C35.958,32.023,50.125,32.133,64.292,32.134z
	 M64.312,64.132c14.333,0,28.667-0.074,42.999,0.054c3.403,0.03,4.857-1.025,4.699-4.577c-0.215-4.824-0.138-9.666-0.022-14.497
	c0.067-2.833-0.747-4.31-3.928-4.303c-29.166,0.066-58.332,0.065-87.498-0.002c-3.183-0.007-3.996,1.475-3.926,4.306
	c0.115,4.664,0.257,9.348-0.039,13.995c-0.259,4.056,1.36,5.145,5.217,5.097C35.978,64.026,50.146,64.133,64.312,64.132z"/>
<path fill-rule="evenodd" clip-rule="evenodd" fill="#333333" d="M64.292,88.809c-4.156-0.002-8.314-0.092-12.467,0.027
	c-3.188,0.091-3.876-1.606-3.882-4.37c-0.006-2.795,0.763-4.375,3.917-4.338c8.312,0.099,16.625,0.099,24.936,0.005
	c3.183-0.036,3.877,1.61,3.884,4.374c0.008,2.799-0.767,4.423-3.92,4.332C72.607,88.72,68.448,88.81,64.292,88.809z"/>
<path fill-rule="evenodd" clip-rule="evenodd" fill="#333333" d="M64.194,24.817c-3.99,0.004-7.984-0.114-11.969,0.04
	c-3.299,0.127-4.345-1.354-4.296-4.487c0.046-2.874,0.955-4.283,4.027-4.246c8.311,0.1,16.625,0.104,24.937,0.012
	c3.269-0.035,3.754,1.777,3.784,4.462c0.033,2.879-0.943,4.333-4.016,4.245C72.508,24.724,68.35,24.813,64.194,24.817z"/>
<path fill-rule="evenodd" clip-rule="evenodd" fill="#333333" d="M63.961,56.823c-3.823,0.003-7.65-0.096-11.47,0.034
	c-3.046,0.103-4.598-0.844-4.57-4.222c0.025-3.101,0.954-4.575,4.278-4.522c8.144,0.129,16.292,0.107,24.438,0.01
	c3.048-0.036,4.02,1.315,4.058,4.217c0.041,3.105-0.937,4.643-4.266,4.519C72.279,56.703,68.118,56.82,63.961,56.823z"/>
</svg>
