<?xml version="1.0" encoding="utf-8"?>
<!-- Generator: Adobe Illustrator 16.0.0, SVG Export Plug-In . SVG Version: 6.00 Build 0)  -->
<!DOCTYPE svg PUBLIC "-//W3C//DTD SVG 1.1//EN" "http://www.w3.org/Graphics/SVG/1.1/DTD/svg11.dtd">
<svg version="1.1" id="Calque_1" xmlns="http://www.w3.org/2000/svg" xmlns:xlink="http://www.w3.org/1999/xlink" x="0px" y="0px"
	 width="101.597px" height="126.101px" viewBox="0 0 101.597 126.101" enable-background="new 0 0 101.597 126.101"
	 xml:space="preserve">
<path fill-rule="evenodd" clip-rule="evenodd" fill="#333333" d="M50.299,86.504c-7.661,0.001-15.329,0.192-22.98-0.076
	c-4.067-0.143-5.568,1.583-6.17,5.339c-1.578,9.849-3.344,19.67-5.223,29.466c-0.392,2.04-0.198,5.372-3.684,4.804
	c-3.594-0.587-2.724-3.545-2.288-6.008c1.681-9.495,3.258-19.011,5.14-28.466c0.661-3.323-0.07-5.161-3.515-5.633
	c-0.659-0.09-1.334-0.168-1.959-0.379c-4.593-1.546-9.179-3.768-9.591-9.023c-0.402-5.126,3.614-8.062,8.109-9.51
	c3.814-1.229,3.547-3.923,3.246-6.76c-1.106-10.415-2.086-20.85-3.499-31.225C5.505,11.562,15.018,0.266,32.74,0.099
	C44.729-0.015,56.724-0.067,68.71,0.146C85.169,0.441,94.608,11.84,92.503,28.096c-1.387,10.713-2.248,21.494-3.422,32.236
	c-0.366,3.355,0.202,5.61,4.09,6.591c4.632,1.169,8.526,4.146,8.424,9.26c-0.104,5.144-4.493,7.413-8.799,9.137
	c-1.066,0.427-2.254,0.682-3.401,0.753c-4.206,0.26-4.643,2.629-3.982,6.181c1.731,9.313,3.278,18.663,4.782,28.017
	c0.338,2.104,1.718,5.133-1.978,5.532c-3.28,0.354-3.314-2.773-3.728-4.917c-1.79-9.305-3.606-18.611-5.033-27.976
	c-0.722-4.74-2.483-6.879-7.682-6.527C64.646,86.863,57.46,86.502,50.299,86.504z M40.144,36.303c0,5.165-0.002,10.329,0,15.493
	c0.005,14.622,0.004,14.521,14.927,14.303c3.829-0.056,5.413-1.325,5.388-5.224c-0.106-16.158-0.093-32.318-0.023-48.478
	c0.019-4.098-1.392-6.29-5.854-5.953c-2.981,0.225-6.007,0.219-8.989-0.002c-4.028-0.298-5.671,1.116-5.525,5.374
	C40.342,19.97,40.146,28.14,40.144,36.303z M34.391,36.697c-0.253-7.685,0.378-16.999-0.527-26.311
	c-0.398-4.096-2.085-5.026-5.886-4.236c-9.971,2.073-14.811,7.788-14.067,17.903c0.755,10.267,2.107,20.488,3.054,30.743
	c1.263,13.666,0.102,10.831,12.875,11.264c3.553,0.12,4.65-1.445,4.594-4.778C34.301,53.63,34.391,45.975,34.391,36.697z
	 M66.15,36.425c0,8.472,0.004,16.943-0.003,25.415c-0.002,2.098,0.043,4.148,2.953,4.151c3.487,0.003,6.977,0.022,10.463-0.038
	c1.767-0.031,2.673-1.049,2.864-2.807c1.522-14.007,3.949-27.944,4.053-42.064c0.063-8.611-6.711-14.467-15.643-14.617
	c-3.376-0.057-4.811,1.003-4.74,4.547C66.264,19.48,66.151,27.954,66.15,36.425z M51.048,72.458c0,0.037,0,0.074,0,0.111
	c-12.831,0-25.662-0.023-38.493,0.021c-2.506,0.009-5.661,0.025-6.035,3.106c-0.411,3.381,3.035,3.316,5.304,4.045
	c0.622,0.199,1.316,0.241,1.977,0.241c24.662,0.006,49.324,0.058,73.985-0.088c2.821-0.017,7.171-0.042,7.181-3.738
	c0.012-4.315-4.438-3.622-7.427-3.65C75.377,72.391,63.212,72.458,51.048,72.458z"/>
</svg>
