<?xml version="1.0" encoding="utf-8"?>
<!-- Generator: Adobe Illustrator 16.0.0, SVG Export Plug-In . SVG Version: 6.00 Build 0)  -->
<!DOCTYPE svg PUBLIC "-//W3C//DTD SVG 1.1//EN" "http://www.w3.org/Graphics/SVG/1.1/DTD/svg11.dtd">
<svg version="1.1" id="Calque_1" xmlns="http://www.w3.org/2000/svg" xmlns:xlink="http://www.w3.org/1999/xlink" x="0px" y="0px"
	 width="54.122px" height="21.777px" viewBox="0 0 54.122 21.777" enable-background="new 0 0 54.122 21.777" xml:space="preserve">
<g>
	<path fill="#C3B0A4" d="M27.063,16.21c3.337,0,6.673,0.017,10.012-0.014c0.674-0.008,0.872,0.21,0.848,0.867
		c-0.045,1.227-0.012,2.457-0.012,3.687c0,1.022-0.002,1.025-1.007,1.025c-4.544,0.001-9.088,0.001-13.631,0.001
		c-1.954,0-3.908,0-5.861,0c-1.199,0-1.199-0.001-1.199-1.229c-0.001-1.187,0.026-2.372-0.011-3.556
		c-0.018-0.6,0.178-0.799,0.786-0.795C20.347,16.222,23.705,16.21,27.063,16.21z"/>
	<path fill="#C3B0A4" d="M49.295,13.652c-1.34,0-2.676-0.017-4.014,0.007c-0.518,0.01-0.76-0.132-0.748-0.701
		c0.03-1.402,0.022-2.808,0.004-4.212c-0.008-0.475,0.159-0.677,0.645-0.674c2.764,0.01,5.527,0.01,8.291,0
		c0.482-0.003,0.654,0.195,0.646,0.673c-0.021,1.404-0.025,2.809,0.002,4.212c0.012,0.566-0.229,0.712-0.746,0.702
		C52.015,13.635,50.655,13.652,49.295,13.652z"/>
	<path fill="#C3B0A4" d="M4.814,13.651c-1.36,0.001-2.721-0.017-4.08,0.009C0.202,13.669-0.01,13.496,0,12.942
		c0.027-1.403,0.024-2.809,0.002-4.211C-0.005,8.24,0.196,8.069,0.664,8.072C3.428,8.081,6.191,8.08,8.956,8.073
		c0.434,0,0.634,0.159,0.629,0.621c-0.017,1.447-0.017,2.896-0.001,4.344c0.005,0.455-0.177,0.622-0.624,0.617
		C7.578,13.641,6.197,13.651,4.814,13.651z"/>
	<path fill="#C3B0A4" d="M29.851,2.774c0,0.724-0.013,1.449,0.006,2.173c0.011,0.443-0.168,0.642-0.618,0.638
		c-1.449-0.01-2.898-0.01-4.348,0.002c-0.446,0.002-0.627-0.187-0.623-0.634c0.013-1.427,0.013-2.854,0-4.281
		c-0.004-0.468,0.16-0.676,0.652-0.669c1.426,0.02,2.854,0.019,4.28,0c0.487-0.007,0.668,0.192,0.657,0.664
		C29.838,1.368,29.851,2.071,29.851,2.774z"/>
	<path fill="#C3B0A4" d="M0.012,2.797c0-0.745,0.008-1.49-0.003-2.235C0.003,0.172,0.171,0.006,0.56,0.008
		c1.49,0.009,2.982,0.01,4.473-0.001C5.44,0.004,5.576,0.212,5.575,0.576c0,1.469-0.002,2.938,0.001,4.406
		c0.001,0.407-0.181,0.602-0.597,0.601C3.51,5.576,2.041,5.576,0.572,5.582C0.148,5.583-0.003,5.377,0.006,4.967
		C0.022,4.245,0.01,3.521,0.012,2.797z"/>
	<path fill="#C3B0A4" d="M54.113,18.958c0,0.724-0.017,1.446,0.007,2.17c0.014,0.439-0.144,0.65-0.599,0.648
		c-1.446-0.008-2.894-0.007-4.34,0c-0.437,0.002-0.64-0.179-0.638-0.627c0.01-1.445,0.008-2.894,0-4.339
		c-0.002-0.449,0.197-0.611,0.644-0.605c1.424,0.019,2.851,0.019,4.272,0c0.479-0.007,0.674,0.163,0.658,0.647
		C54.095,17.554,54.113,18.256,54.113,18.958z"/>
	<path fill="#C3B0A4" d="M0.011,18.984c0-0.726,0.01-1.447-0.003-2.17C0,16.412,0.131,16.205,0.57,16.208
		c1.491,0.014,2.981,0.01,4.472,0.001c0.361-0.002,0.528,0.161,0.528,0.509c0.002,1.514,0.001,3.024,0,4.536
		c0,0.356-0.194,0.517-0.537,0.517c-1.49,0.002-2.98,0-4.471,0.004c-0.427,0.001-0.568-0.215-0.558-0.619
		C0.023,20.43,0.01,19.707,0.011,18.984z"/>
	<path fill="#C3B0A4" d="M41.983,10.916c-0.001,0.702-0.014,1.404,0.003,2.105c0.011,0.438-0.153,0.639-0.612,0.634
		c-1.449-0.014-2.896-0.014-4.345,0.002c-0.454,0.004-0.628-0.188-0.626-0.628c0.012-1.426,0.012-2.853,0-4.277
		c-0.004-0.466,0.18-0.683,0.659-0.679c1.425,0.011,2.851,0.012,4.276-0.002c0.48-0.004,0.664,0.197,0.648,0.674
		C41.965,9.466,41.983,10.192,41.983,10.916z"/>
	<path fill="#C3B0A4" d="M31.125,13.651c-0.723,0-1.446-0.009-2.17,0.002c-0.396,0.007-0.619-0.115-0.615-0.558
		c0.011-1.492,0.01-2.982,0-4.474c-0.002-0.403,0.199-0.546,0.568-0.545c1.469,0.002,2.938,0.005,4.405-0.001
		c0.418-0.003,0.595,0.197,0.595,0.604c-0.004,1.47-0.004,2.938,0,4.405c0.002,0.422-0.201,0.58-0.611,0.569
		C32.575,13.639,31.85,13.651,31.125,13.651z"/>
	<path fill="#C3B0A4" d="M25.78,10.89c0,0.725-0.01,1.446,0.004,2.171c0.008,0.415-0.161,0.596-0.583,0.592
		c-1.469-0.01-2.938-0.012-4.407,0.002c-0.435,0.004-0.583-0.203-0.582-0.601c0.004-1.447,0.006-2.896,0-4.342
		C20.21,8.276,20.391,8.07,20.84,8.072c1.447,0.01,2.894,0.01,4.341,0.001c0.455-0.003,0.617,0.207,0.604,0.646
		C25.767,9.443,25.781,10.167,25.78,10.89z"/>
	<path fill="#C3B0A4" d="M14.93,13.651c-0.724,0-1.447-0.009-2.172,0.003c-0.395,0.006-0.622-0.117-0.618-0.559
		c0.009-1.492,0.008-2.983,0-4.475c-0.002-0.402,0.202-0.545,0.57-0.544c1.469,0.002,2.939,0.004,4.408,0
		c0.412-0.001,0.598,0.189,0.596,0.603c-0.004,1.47-0.005,2.938,0,4.407c0.002,0.428-0.208,0.574-0.614,0.566
		C16.377,13.64,15.653,13.651,14.93,13.651z"/>
	<path fill="#C3B0A4" d="M51.308,5.583c-0.702,0-1.404-0.009-2.104,0.002c-0.429,0.007-0.658-0.151-0.656-0.608
		c0.008-1.47,0.004-2.938,0-4.407C48.545,0.144,48.756,0,49.163,0.004c1.448,0.014,2.896,0.016,4.342,0
		C53.963,0,54.122,0.19,54.118,0.634c-0.015,1.447-0.017,2.895,0.002,4.342c0.004,0.473-0.217,0.614-0.642,0.608
		C52.754,5.575,52.03,5.583,51.308,5.583z"/>
	<path fill="#C3B0A4" d="M46.049,2.812c0,0.702-0.008,1.403,0.004,2.105c0.008,0.425-0.143,0.664-0.604,0.663
		c-1.47-0.007-2.939-0.006-4.41,0.001c-0.424,0.001-0.574-0.203-0.572-0.61c0.013-1.449,0.014-2.897,0-4.346
		C40.463,0.177,40.646,0,41.094,0.004c1.447,0.015,2.896,0.016,4.344,0C45.902,0,46.061,0.207,46.053,0.641
		C46.042,1.363,46.049,2.088,46.049,2.812z"/>
	<path fill="#C3B0A4" d="M10.86,0.009c0.724,0,1.447,0.009,2.172-0.003C13.427,0,13.655,0.122,13.653,0.563
		c-0.009,1.492-0.008,2.983,0,4.476c0.002,0.402-0.206,0.542-0.573,0.542c-1.47-0.002-2.94-0.003-4.41,0
		c-0.408,0.001-0.6-0.184-0.598-0.6c0.006-1.472,0.006-2.94,0-4.41C8.07,0.142,8.285-0.002,8.688,0.005
		C9.412,0.02,10.137,0.009,10.86,0.009z"/>
	<path fill="#C3B0A4" d="M10.88,16.21c0.701,0,1.403,0.02,2.104-0.006c0.469-0.016,0.679,0.148,0.673,0.642
		c-0.017,1.425-0.018,2.85,0.001,4.271c0.007,0.496-0.221,0.66-0.673,0.659c-1.424-0.005-2.849-0.008-4.273,0
		c-0.483,0.002-0.649-0.228-0.644-0.689c0.015-1.402,0.018-2.806-0.001-4.207c-0.007-0.521,0.21-0.695,0.711-0.676
		C9.477,16.232,10.179,16.21,10.88,16.21z"/>
	<path fill="#C3B0A4" d="M46.051,18.953c-0.002,0.726-0.014,1.447,0.003,2.17c0.009,0.437-0.164,0.652-0.612,0.651
		c-1.447-0.006-2.893-0.007-4.339,0.001c-0.485,0.002-0.644-0.229-0.638-0.694c0.018-1.4,0.017-2.805,0-4.206
		c-0.004-0.466,0.148-0.677,0.645-0.67c1.424,0.02,2.85,0.024,4.273-0.002c0.537-0.011,0.687,0.229,0.672,0.713
		C46.036,17.594,46.051,18.273,46.051,18.953z"/>
	<path fill="#C3B0A4" d="M37.909,2.802c0.002,0.703-0.019,1.406,0.006,2.107c0.019,0.475-0.156,0.681-0.641,0.678
		c-1.404-0.015-2.811-0.014-4.216-0.001C32.584,5.59,32.4,5.404,32.407,4.919c0.022-1.404,0.022-2.811,0-4.215
		C32.4,0.205,32.557-0.009,33.081,0c1.405,0.024,2.812,0.02,4.217,0.003C37.75,0,37.928,0.178,37.915,0.629
		C37.894,1.353,37.909,2.078,37.909,2.802z"/>
	<path fill="#C3B0A4" d="M21.706,2.779c0,0.747-0.011,1.494,0.004,2.239c0.008,0.396-0.171,0.562-0.548,0.562
		c-1.471-0.002-2.942-0.003-4.414-0.002c-0.385,0-0.541-0.183-0.538-0.571c0.011-1.471,0.012-2.941,0-4.413
		c-0.003-0.421,0.163-0.592,0.583-0.588c1.449,0.012,2.898,0.012,4.347,0c0.431-0.003,0.579,0.188,0.57,0.601
		C21.694,1.331,21.706,2.055,21.706,2.779z"/>
</g>
</svg>
