<?xml version="1.0" encoding="utf-8"?>
<!-- Generator: Adobe Illustrator 16.0.0, SVG Export Plug-In . SVG Version: 6.00 Build 0)  -->
<!DOCTYPE svg PUBLIC "-//W3C//DTD SVG 1.1//EN" "http://www.w3.org/Graphics/SVG/1.1/DTD/svg11.dtd">
<svg version="1.1" id="Layer_1" xmlns="http://www.w3.org/2000/svg" xmlns:xlink="http://www.w3.org/1999/xlink" x="0px" y="0px"
	 width="21.828px" height="19.667px" viewBox="248.086 246.166 21.828 19.667"
	 enable-background="new 248.086 246.166 21.828 19.667" xml:space="preserve">
<path fill="#555555" d="M263.564,247.506c2.729,0,4.946,2.223,4.946,4.968c0,1.411-0.585,2.681-1.522,3.585L259,264.123
	l-8.128-8.208c-0.851-0.894-1.378-2.104-1.378-3.44c0-2.745,2.212-4.968,4.947-4.968c2.057,0,3.816,1.259,4.565,3.058
	C259.743,248.771,261.509,247.506,263.564,247.506 M263.82,246.166c-1.922,0-3.684,0.898-4.82,2.376
	c-1.137-1.478-2.899-2.376-4.82-2.376c-3.359,0-6.093,2.746-6.093,6.122c0,1.586,0.603,3.093,1.7,4.241l8.595,8.68l0.619,0.625
	l0.619-0.625l8.43-8.515c1.194-1.154,1.865-2.723,1.865-4.406C269.914,248.911,267.18,246.166,263.82,246.166L263.82,246.166z"/>
</svg>
