<?xml version="1.0" encoding="utf-8"?>
<!-- Generator: Adobe Illustrator 16.0.0, SVG Export Plug-In . SVG Version: 6.00 Build 0)  -->
<!DOCTYPE svg PUBLIC "-//W3C//DTD SVG 1.1//EN" "http://www.w3.org/Graphics/SVG/1.1/DTD/svg11.dtd">
<svg version="1.1" id="Calque_1" xmlns="http://www.w3.org/2000/svg" xmlns:xlink="http://www.w3.org/1999/xlink" x="0px" y="0px"
	 width="128.829px" height="128.543px" viewBox="0 0 128.829 128.543" enable-background="new 0 0 128.829 128.543"
	 xml:space="preserve">
<g>
	<path fill-rule="evenodd" clip-rule="evenodd" fill="#333333" d="M8.14,94.757c0-2.997-0.149-6.003,0.033-8.989
		c0.322-5.271-0.679-9.65-4.155-14.211c-7.671-10.062-3.942-23.423,7.66-29.564c2.948-1.561,4.305-3.255,4.863-6.658
		C20.17,13.207,35.556,0.226,57.996,0.008c4.661-0.046,9.324,0.121,13.985,0.076c23.812-0.231,38.549,17.907,40.509,35.28
		c0.356,3.156,1.502,4.914,4.428,6.387c12.895,6.491,15.783,21.314,6.384,32.298c-1.757,2.053-2.538,4.049-2.511,6.719
		c0.1,9.656,0.103,19.315-0.042,28.971c-0.111,7.377-1.738,9.31-8.964,10.761c-2.029,0.407-2.979,1.205-2.926,3.211
		c0.076,2.902-0.832,4.805-4.209,4.833c-3.188,0.027-4.643-1.405-4.5-4.519c0.141-3.049-1.713-3.485-4.188-3.481
		c-20.979,0.036-41.959,0.036-62.938,0.001c-2.477-0.005-4.327,0.435-4.188,3.482c0.142,3.114-1.317,4.566-4.504,4.513
		c-2.97-0.05-4.279-1.486-4.167-4.332c0.097-2.459-0.961-3.37-3.461-3.775c-6.296-1.021-8.228-3.317-8.44-9.692
		c-0.178-5.321-0.037-10.654-0.037-15.982C8.198,94.757,8.168,94.757,8.14,94.757z M64.462,111.85c13.664,0,27.328-0.03,40.992,0.02
		c3.811,0.015,6.656-0.934,6.663-5.444c0.01-6.832,0.019-13.664-0.006-20.496c-0.012-3.078-1.306-5.109-4.635-5.363
		c-3.375-0.259-6.374-1.806-9.551-2.744c-14.318-4.229-28.882-6.069-43.876-4.747c-11.555,1.02-22.333,5.04-33.483,7.605
		c-3.034,0.699-3.71,3.002-3.71,5.714c0,6.165-0.045,12.331,0.001,18.496c0.044,5.827,1.149,6.931,7.112,6.949
		C37.467,111.881,50.965,111.853,64.462,111.85z M64.585,8.561c-2.496,0-4.991-0.024-7.487,0.004
		C40.902,8.748,28.287,19.515,25.245,35.5c-0.562,2.961,0.071,4.608,2.876,5.897c9.032,4.152,13.146,11.398,12.419,21.255
		c-0.221,3.001,1.003,3.342,3.483,2.996c13.738-1.917,27.494-1.777,41.234-0.035c2.334,0.296,3.396-0.07,3.188-2.763
		c-0.782-10.089,3.464-17.365,12.67-21.617c2.056-0.949,3.112-2.111,2.881-4.562C102.818,24.2,91.833,12.067,79.485,9.455
		C74.527,8.406,69.564,8.629,64.585,8.561z M20.591,71.753c6.061-0.039,11.57-5.62,11.473-11.622
		c-0.097-6.021-5.705-11.551-11.657-11.493c-6,0.058-11.516,5.655-11.483,11.654C8.958,66.287,14.562,71.792,20.591,71.753z
		 M120.062,60.319c0.168-5.904-5.383-11.596-11.405-11.693C102.701,48.529,97,54.052,96.911,60.002
		c-0.091,6.084,5.246,11.524,11.414,11.635C114.448,71.748,119.886,66.504,120.062,60.319z"/>
	<path fill-rule="evenodd" clip-rule="evenodd" fill="none" d="M64.462,111.851c-13.497,0.002-26.995,0.03-40.492-0.012
		c-5.963-0.019-7.068-1.122-7.112-6.949c-0.047-6.165-0.002-12.331-0.001-18.496c0-2.712,0.676-5.015,3.71-5.714
		c11.15-2.565,21.929-6.586,33.483-7.605c14.994-1.322,29.558,0.519,43.876,4.747c3.177,0.938,6.176,2.485,9.551,2.744
		c3.329,0.254,4.623,2.285,4.635,5.363c0.024,6.832,0.016,13.664,0.006,20.496c-0.007,4.511-2.853,5.459-6.663,5.444
		C91.79,111.819,78.126,111.85,64.462,111.851z"/>
	<path fill-rule="evenodd" clip-rule="evenodd" fill="none" d="M64.585,8.559c4.979,0.07,9.942-0.152,14.9,0.896
		c12.348,2.612,23.333,14.745,24.512,27.217c0.231,2.45-0.825,3.612-2.881,4.562c-9.206,4.252-13.452,11.528-12.67,21.617
		c0.208,2.692-0.854,3.059-3.188,2.763c-13.74-1.742-27.496-1.882-41.234,0.035c-2.48,0.346-3.704,0.005-3.483-2.996
		c0.728-9.856-3.387-17.103-12.419-21.255c-2.805-1.289-3.438-2.937-2.876-5.897C28.287,19.515,40.902,8.748,57.098,8.564
		C59.594,8.536,62.089,8.561,64.585,8.559z"/>
	<path fill-rule="evenodd" clip-rule="evenodd" fill="none" d="M20.591,71.753c-6.03,0.039-11.634-5.466-11.667-11.461
		c-0.033-5.999,5.482-11.597,11.483-11.654c5.952-0.058,11.561,5.472,11.657,11.493C32.161,66.133,26.652,71.714,20.591,71.753z"/>
	<path fill-rule="evenodd" clip-rule="evenodd" fill="none" d="M120.062,60.319c-0.176,6.185-5.613,11.429-11.736,11.317
		c-6.168-0.11-11.505-5.551-11.414-11.635c0.089-5.95,5.79-11.473,11.745-11.376C114.679,48.724,120.229,54.415,120.062,60.319z"/>
</g>
</svg>
