<?xml version="1.0" encoding="utf-8"?>
<!-- Generator: Adobe Illustrator 16.0.0, SVG Export Plug-In . SVG Version: 6.00 Build 0)  -->
<!DOCTYPE svg PUBLIC "-//W3C//DTD SVG 1.1//EN" "http://www.w3.org/Graphics/SVG/1.1/DTD/svg11.dtd">
<svg version="1.1" id="Calque_1" xmlns="http://www.w3.org/2000/svg" xmlns:xlink="http://www.w3.org/1999/xlink" x="0px" y="0px"
	 width="96.843px" height="116.159px" viewBox="0 0 96.843 116.159" enable-background="new 0 0 96.843 116.159"
	 xml:space="preserve">
<path fill-rule="evenodd" clip-rule="evenodd" fill="#333333" d="M17.33,65.304c0,12.661,0.127,25.323-0.072,37.98
	c-0.065,4.161,1.401,5.8,5.506,5.376c1.978-0.205,4.008-0.188,5.99-0.003c4.087,0.381,6.832-0.466,6.604-5.449
	c-0.128-2.787,1.641-4.273,4.468-4.147c2.975,0.134,2.872,2.469,2.657,4.404c-0.489,4.403,1.679,5.569,5.571,5.199
	c2.799-0.266,4.419,0.842,4.318,3.973c-0.097,2.997-1.939,3.512-4.349,3.511c-14.493-0.006-28.985-0.013-43.479,0.011
	c-2.653,0.004-4.552-0.601-4.545-3.841c0.008-3.329,2.077-3.925,4.638-3.646c4.285,0.464,5.332-1.504,5.305-5.502
	C9.803,82.514,9.881,61.857,9.93,41.201c0.012-5.159,0.173-10.301,0.753-15.455c2.111-18.78,21.023-30.729,38.418-23.49
	c5.652,2.352,9.914,2.573,15.688,0.087c10.382-4.47,20.527-2.374,29.446,4.854c2.858,2.316,3.875,4.595,0.414,7.139
	c-4.153,3.055-5.151,6.079-2.435,11.227c3.268,6.191,1.001,13.344-3.952,17.722c-5.457,4.824-12.107,5.923-18.433,2.063
	c-3.792-2.314-5.346-0.1-7.46,1.983c-5.599,5.514-5.899,5.604-10.352-0.697c-6.957-9.847-7.554-20.459-2.286-31.118
	c1.963-3.973,1.134-5.439-2.659-6.894C32.752,3.135,17.646,12.987,17.4,28.324c-0.196,12.324-0.039,24.653-0.039,36.98
	C17.351,65.304,17.34,65.304,17.33,65.304z M53.451,29.631c-0.279,2.574,0.69,5.562,1.842,8.544
	c1.188,3.079,2.549,3.408,4.947,0.953c8.268-8.461,16.602-16.86,25.053-25.138c2.615-2.562,1.745-3.601-1.085-4.862
	C69.744,2.681,53.485,13.12,53.451,29.631z M86.178,31.432c-0.276-1.516,0.419-3.775-1.713-4.574
	c-1.659-0.622-2.572,1.16-3.602,2.143c-2.392,2.284-4.646,4.714-7.049,6.985c-2.335,2.207-1.266,3.229,1.157,4.073
	C80.352,41.931,86.06,37.667,86.178,31.432z"/>
</svg>
