<?xml version="1.0" encoding="utf-8"?>
<!-- Generator: Adobe Illustrator 16.0.0, SVG Export Plug-In . SVG Version: 6.00 Build 0)  -->
<!DOCTYPE svg PUBLIC "-//W3C//DTD SVG 1.1//EN" "http://www.w3.org/Graphics/SVG/1.1/DTD/svg11.dtd">
<svg version="1.1" id="Calque_1" xmlns="http://www.w3.org/2000/svg" xmlns:xlink="http://www.w3.org/1999/xlink" x="0px" y="0px"
	 width="50px" height="50px" viewBox="0 0 50 50" enable-background="new 0 0 50 50" xml:space="preserve">
<path id="Twitter_1_" fill="#555555" d="M9.855,29.59c3.868,6.443,22.418,9.373,26.522-4.373c2.634,0.269,3.566-1.264,3.566-1.264
	s-3.228,0-3.314-0.669c2.179,0.2,3.314-1.666,3.314-1.666l-3.566,0.329c0,0-0.434-4.734-6.175-6.037
	c0.4-0.566,2.138-0.983,2.138-0.983h-2.004l0.468-0.807l-1.805,0.807l-0.062-0.88c0,0-4.275,4.967-4.675,7.569
	c-3.601-3.137-10.008-5.205-10.008-5.205s-0.133,2.334,2.336,3.804c-0.923,0.411-1.667,0.2-1.667,0.2s-0.2,1.868,3.003,2.937
	c-1.738,0.399-1.805,1.166-1.805,1.166s0.602,1.703,3.405,1.703c-1.668,2.334,0.998,2.334,0.998,2.334S18.329,33.497,9.855,29.59z"
	/>
</svg>
