<?xml version="1.0" encoding="utf-8"?>
<!-- Generator: Adobe Illustrator 16.0.0, SVG Export Plug-In . SVG Version: 6.00 Build 0)  -->
<!DOCTYPE svg PUBLIC "-//W3C//DTD SVG 1.1//EN" "http://www.w3.org/Graphics/SVG/1.1/DTD/svg11.dtd">
<svg version="1.1" id="Calque_1" xmlns="http://www.w3.org/2000/svg" xmlns:xlink="http://www.w3.org/1999/xlink" x="0px" y="0px"
	 width="50px" height="50px" viewBox="0 0 50 50" enable-background="new 0 0 50 50" xml:space="preserve">
<path fill="#FFFFFF" d="M38.638,28.79v8.364c0,2.074-0.736,3.847-2.208,5.319c-1.474,1.473-3.246,2.209-5.32,2.209H9.362
	c-2.074,0-3.847-0.736-5.319-2.209s-2.209-3.245-2.209-5.319V15.407c0-2.074,0.736-3.847,2.209-5.319
	c1.473-1.473,3.245-2.209,5.319-2.209h18.401c0.244,0,0.444,0.078,0.602,0.235c0.156,0.156,0.235,0.357,0.235,0.601v1.673
	c0,0.244-0.079,0.445-0.235,0.601c-0.157,0.157-0.357,0.235-0.602,0.235H9.362c-1.15,0-2.135,0.409-2.954,1.228
	c-0.819,0.82-1.228,1.804-1.228,2.954v21.747c0,1.151,0.409,2.135,1.228,2.954s1.804,1.229,2.954,1.229h21.747
	c1.151,0,2.136-0.409,2.954-1.229s1.229-1.803,1.229-2.954V28.79c0-0.244,0.078-0.444,0.234-0.602
	c0.158-0.156,0.357-0.234,0.602-0.234h1.673c0.244,0,0.444,0.078,0.602,0.234C38.559,28.346,38.638,28.546,38.638,28.79
	L38.638,28.79z M48.675,6.207v13.383c0,0.453-0.165,0.845-0.497,1.176c-0.331,0.331-0.723,0.497-1.176,0.497
	c-0.452,0-0.845-0.166-1.177-0.497l-4.6-4.6L24.183,33.207c-0.174,0.176-0.375,0.263-0.601,0.263c-0.227,0-0.427-0.087-0.601-0.263
	L20,30.228c-0.174-0.174-0.261-0.374-0.261-0.601c0-0.228,0.087-0.427,0.261-0.601l17.042-17.043l-4.601-4.6
	c-0.331-0.332-0.496-0.723-0.496-1.176s0.165-0.845,0.496-1.176c0.332-0.331,0.724-0.497,1.176-0.497h13.384
	c0.453,0,0.845,0.166,1.176,0.497C48.51,5.361,48.675,5.753,48.675,6.207L48.675,6.207z"/>
</svg>
