<?xml version="1.0" encoding="utf-8"?>
<!-- Generator: Adobe Illustrator 16.0.0, SVG Export Plug-In . SVG Version: 6.00 Build 0)  -->
<!DOCTYPE svg PUBLIC "-//W3C//DTD SVG 1.1//EN" "http://www.w3.org/Graphics/SVG/1.1/DTD/svg11.dtd">
<svg version="1.1" id="Calque_1" xmlns="http://www.w3.org/2000/svg" xmlns:xlink="http://www.w3.org/1999/xlink" x="0px" y="0px"
	 width="50px" height="50px" viewBox="0 0 50 50" enable-background="new 0 0 50 50" xml:space="preserve">
<path fill-rule="evenodd" clip-rule="evenodd" fill="#FFFFFF" d="M29.069,13.931c-2.75-0.509-4.862-0.899-7.123-1.318
	c3.045-2.912,5.976-6.103,9.304-8.803c4.315-3.502,10.623-2.932,14.339,0.883c3.799,3.899,4.199,10.27,0.462,14.486
	c-3.549,4.001-7.365,7.801-11.364,11.354c-3.946,3.509-10.15,3.31-13.954,0.016c-1.563-1.354-1.864-2.985-0.792-4.298
	c1.039-1.271,2.598-1.359,4.233-0.237c2.781,1.906,5.327,1.794,7.748-0.536c3.073-2.957,6.072-5.994,9.047-9.049
	c0.62-0.637,1.123-1.452,1.475-2.272c0.864-2.012,0.402-4.152-1.063-5.557c-1.427-1.367-3.711-1.791-5.604-0.849
	c-0.958,0.478-1.845,1.186-2.62,1.938C31.626,11.168,30.195,12.751,29.069,13.931z"/>
<path fill-rule="evenodd" clip-rule="evenodd" fill="#FFFFFF" d="M28.421,36.383c-2.434,2.614-4.979,5.771-7.956,8.446
	c-4.408,3.964-10.955,3.644-14.908-0.358c-3.903-3.95-4.211-10.386-0.296-14.773c3.48-3.902,7.22-7.607,11.129-11.078
	c3.997-3.548,10.302-3.336,14.099,0.047c1.46,1.302,1.735,2.89,0.722,4.172c-1.027,1.301-2.605,1.414-4.224,0.304
	c-2.856-1.958-5.395-1.824-7.893,0.59c-3.022,2.921-6.012,5.883-8.892,8.943c-0.837,0.891-1.492,2.113-1.805,3.296
	c-0.561,2.112,0.405,4.101,2.167,5.201c1.75,1.093,4.338,0.939,6.143-0.604c1.708-1.462,3.271-3.1,4.85-4.707
	c0.653-0.663,1.117-0.881,2.154-0.494C25.38,35.989,27.223,36.144,28.421,36.383z"/>
</svg>
