<?xml version="1.0" encoding="utf-8"?>
<!-- Generator: Adobe Illustrator 16.0.0, SVG Export Plug-In . SVG Version: 6.00 Build 0)  -->
<!DOCTYPE svg PUBLIC "-//W3C//DTD SVG 1.1//EN" "http://www.w3.org/Graphics/SVG/1.1/DTD/svg11.dtd">
<svg version="1.1" id="Layer_1" xmlns="http://www.w3.org/2000/svg" xmlns:xlink="http://www.w3.org/1999/xlink" x="0px" y="0px"
	 width="23.669px" height="22.155px" viewBox="8.932 7.191 23.669 22.155" enable-background="new 8.932 7.191 23.669 22.155"
	 xml:space="preserve">
<path fill-rule="evenodd" clip-rule="evenodd" fill="#555555" d="M26.631,7.23c3.047,0.037,5.45,2.196,5.89,5.025
	c0.223,1.44-0.032,2.833-0.55,4.181c-0.575,1.5-1.477,2.8-2.509,4.016c-1.221,1.438-2.602,2.719-3.968,4.014
	c-1.032,0.978-2.066,1.956-2.982,3.05c-0.445,0.532-0.858,1.085-1.199,1.692c-0.029,0.053-0.047,0.135-0.114,0.138
	c-0.074,0.003-0.086-0.083-0.114-0.135c-0.407-0.754-0.792-1.519-1.288-2.22c-0.076-0.107-0.016-0.174,0.039-0.251
	c0.518-0.721,1.036-1.442,1.553-2.163c0.297-0.416,0.588-0.834,0.891-1.242c0.087-0.117,0.074-0.168-0.041-0.248
	c-0.957-0.676-1.906-1.362-2.863-2.036c-0.146-0.104-0.159-0.166-0.033-0.298c0.943-1.006,1.877-2.02,2.819-3.025
	c0.114-0.12,0.128-0.186,0.003-0.312c-0.881-0.892-1.751-1.792-2.629-2.687c-0.096-0.098-0.105-0.173-0.042-0.295
	c0.756-1.452,1.456-2.936,2.271-4.352c0.889-1.541,2.217-2.536,4.029-2.786C26.08,7.259,26.369,7.24,26.631,7.23z M31.464,13.071
	c0.017-0.525-0.12-1.201-0.41-1.839c-0.904-1.997-2.868-3.088-5.071-2.815c-1.454,0.179-2.519,0.981-3.23,2.21
	c-0.68,1.176-1.259,2.41-1.887,3.615c-0.065,0.125-0.041,0.199,0.051,0.293c0.936,0.952,1.864,1.91,2.8,2.861
	c0.112,0.113,0.128,0.181,0.013,0.306c-0.906,0.964-1.801,1.937-2.704,2.902c-0.101,0.108-0.109,0.16,0.022,0.252
	c0.926,0.653,1.845,1.317,2.77,1.971c0.128,0.091,0.142,0.16,0.044,0.284c-0.503,0.646-0.978,1.313-1.45,1.979
	c-0.402,0.566-0.806,1.127-1.207,1.691c-0.087,0.122-0.067,0.322,0.052,0.379c0.12,0.059,0.149-0.081,0.2-0.143
	c0.749-0.921,1.581-1.763,2.433-2.583c1.246-1.202,2.535-2.359,3.726-3.616c1.061-1.119,2.048-2.293,2.784-3.657
	C31.056,15.941,31.454,14.648,31.464,13.071z"/>
<path fill-rule="evenodd" clip-rule="evenodd" fill="#555555" d="M8.934,13.124c-0.059-2.757,1.996-5.352,4.948-5.844
	c1.709-0.285,3.273,0.13,4.695,1.099c0.837,0.571,1.47,1.322,1.956,2.215c0.103,0.189,0.062,0.272-0.004,0.413
	c-0.518,1.105-1.031,2.214-1.554,3.317c-0.079,0.166-0.067,0.273,0.06,0.414c0.783,0.87,1.553,1.752,2.335,2.625
	c0.114,0.127,0.11,0.205-0.006,0.327c-0.797,0.849-1.588,1.704-2.381,2.555c-0.159,0.171-0.314,0.345-0.477,0.511
	c-0.069,0.071-0.095,0.12,0.002,0.192c0.967,0.725,1.911,1.482,2.939,2.121c0.137,0.085,0.133,0.155,0.065,0.271
	c-0.223,0.381-0.473,0.744-0.729,1.102c-0.438,0.616-0.88,1.229-1.32,1.843c-0.064,0.091-0.116,0.166-0.225,0.038
	c-0.967-1.139-2.119-2.079-3.271-3.019c-1.331-1.087-2.686-2.146-3.891-3.378c-1.061-1.083-1.976-2.269-2.55-3.688
	C9.133,15.262,8.93,14.25,8.934,13.124z M14.881,8.323c-0.237,0.015-0.47,0.012-0.701,0.053c-1.94,0.339-3.259,1.43-3.889,3.295
	c-0.434,1.281-0.261,2.562,0.169,3.813c0.43,1.249,1.179,2.303,2.064,3.265c0.948,1.031,2.016,1.934,3.099,2.817
	c1.19,0.971,2.409,1.908,3.503,2.99c0.085,0.085,0.138,0.081,0.206-0.018c0.2-0.29,0.4-0.58,0.613-0.861
	c0.095-0.125,0.082-0.19-0.046-0.282c-1.014-0.726-1.999-1.489-2.985-2.251c-0.181-0.141-0.18-0.142-0.02-0.312
	c0.99-1.065,1.979-2.132,2.972-3.192c0.096-0.103,0.09-0.162,0-0.263c-0.725-0.813-1.438-1.634-2.168-2.443
	c-0.128-0.143-0.136-0.249-0.059-0.413c0.54-1.144,1.063-2.295,1.609-3.437c0.097-0.203,0.077-0.34-0.048-0.511
	C18.13,9.108,16.669,8.401,14.881,8.323z"/>
</svg>
