<?xml version="1.0" encoding="utf-8"?>
<!-- Generator: Adobe Illustrator 16.0.0, SVG Export Plug-In . SVG Version: 6.00 Build 0)  -->
<!DOCTYPE svg PUBLIC "-//W3C//DTD SVG 1.1//EN" "http://www.w3.org/Graphics/SVG/1.1/DTD/svg11.dtd">
<svg version="1.1" id="Calque_1" xmlns="http://www.w3.org/2000/svg" xmlns:xlink="http://www.w3.org/1999/xlink" x="0px" y="0px"
	 width="50px" height="50px" viewBox="0 0 50 50" enable-background="new 0 0 50 50" xml:space="preserve">
<path fill="#3D3D3D" d="M39.749,23.43c-2.182,1.126-4.432,1.327-6.685,0.282c-3.69-1.712-5.811-6.298-4.902-10.465
	c0.958-4.397,4.63-7.68,8.734-7.812c4.918-0.157,9.089,2.961,10.859,8.16c1.186,3.482,1.219,7.038,0.705,10.65
	c-1.266,8.907-9.888,18.151-18.504,19.796c-0.589-1.762,0.112-2.652,1.782-3.455c5.387-2.594,8.644-7.014,9.971-12.794
	c0.38-1.649,0.804-3.448-0.354-5.298C40.68,22.889,40.227,23.183,39.749,23.43z"/>
<path fill="#3D3D3D" d="M14.662,22.612c-2.477,1.671-5.1,2.409-7.949,1.147c-3.762-1.667-5.877-6.195-5.012-10.591
	c0.797-4.045,4.584-7.506,8.451-7.724c5.318-0.301,9.832,3.279,11.465,9.09c3.454,12.295-5.506,26.919-18.07,29.489
	c-0.488-1.621-0.035-2.565,1.625-3.375c5.684-2.775,9.082-7.422,10.223-13.631c0.256-1.391,0.008-2.872-0.01-4.31
	C15.145,22.675,14.902,22.643,14.662,22.612z"/>
</svg>
