<?xml version="1.0" encoding="utf-8"?>
<!-- Generator: Adobe Illustrator 16.0.0, SVG Export Plug-In . SVG Version: 6.00 Build 0)  -->
<!DOCTYPE svg PUBLIC "-//W3C//DTD SVG 1.1//EN" "http://www.w3.org/Graphics/SVG/1.1/DTD/svg11.dtd">
<svg version="1.1" id="Layer_1" xmlns="http://www.w3.org/2000/svg" xmlns:xlink="http://www.w3.org/1999/xlink" x="0px" y="0px"
	 width="32px" height="32px" viewBox="0 0 32 32" enable-background="new 0 0 32 32" xml:space="preserve">
<path fill="#555555" d="M29.707,15.793l-13-13c-0.391-0.391-1.023-0.391-1.414,0l-13,13c-0.391,0.391-0.391,1.023,0,1.414
	s1.023,0.391,1.414,0L16,4.914l8.014,8.014C24.014,12.953,24,12.975,24,13v15H8V18c0-0.553-0.448-1-1-1s-1,0.447-1,1v11
	c0,0.553,0.448,1,1,1h18c0.553,0,1-0.447,1-1V14.914l2.293,2.293C28.488,17.402,28.744,17.5,29,17.5s0.512-0.098,0.707-0.293
	C30.098,16.816,30.098,16.184,29.707,15.793z"/>
</svg>
