<?xml version="1.0" encoding="utf-8"?>
<!-- Generator: Adobe Illustrator 16.0.0, SVG Export Plug-In . SVG Version: 6.00 Build 0)  -->
<!DOCTYPE svg PUBLIC "-//W3C//DTD SVG 1.1//EN" "http://www.w3.org/Graphics/SVG/1.1/DTD/svg11.dtd">
<svg version="1.1" id="Calque_1" xmlns="http://www.w3.org/2000/svg" xmlns:xlink="http://www.w3.org/1999/xlink" x="0px" y="0px"
	 width="50px" height="50px" viewBox="0 0 50 50" enable-background="new 0 0 50 50" xml:space="preserve">
<path fill="#333333" d="M36.459,23.868L25.591,13c-0.327-0.327-0.855-0.327-1.182,0L13.542,23.868c-0.327,0.327-0.327,0.855,0,1.182
	c0.327,0.327,0.855,0.327,1.182,0L25,14.773l6.699,6.7c0,0.021-0.012,0.04-0.012,0.06v12.539H18.312v-8.359
	c0-0.462-0.375-0.836-0.836-0.836s-0.836,0.374-0.836,0.836v9.195c0,0.462,0.375,0.836,0.836,0.836h15.047
	c0.461,0,0.836-0.374,0.836-0.836V23.133l1.916,1.917c0.164,0.164,0.377,0.245,0.592,0.245c0.214,0,0.429-0.082,0.592-0.245
	C36.785,24.724,36.785,24.195,36.459,23.868z"/>
</svg>
