<?xml version="1.0" encoding="utf-8"?>
<!-- Generator: Adobe Illustrator 16.0.0, SVG Export Plug-In . SVG Version: 6.00 Build 0)  -->
<!DOCTYPE svg PUBLIC "-//W3C//DTD SVG 1.1//EN" "http://www.w3.org/Graphics/SVG/1.1/DTD/svg11.dtd">
<svg version="1.1" id="Calque_1" xmlns="http://www.w3.org/2000/svg" xmlns:xlink="http://www.w3.org/1999/xlink" x="0px" y="0px"
	 width="200px" height="200px" viewBox="0 0 200 200" enable-background="new 0 0 200 200" xml:space="preserve">
<g id="Calque_2">
</g>
<g id="Calque_1_1_">
	<g enable-background="new    ">
		<path fill="#FFFFFF" d="M11.616,38.281h5.688v37.406h9.297V80.5H11.616V38.281z"/>
		<path fill="#FFFFFF" d="M52.554,66.582c0,9.57-2.963,14.355-8.887,14.355c-5.925,0-8.887-4.857-8.887-14.574
			c0-9.752,2.953-14.629,8.859-14.629c1.531,0,2.857,0.292,3.979,0.875c1.121,0.584,2.046,1.486,2.775,2.707
			c0.729,1.222,1.271,2.762,1.627,4.621S52.554,64.012,52.554,66.582z M47.14,66.445c0-3.719-0.246-6.307-0.738-7.766
			c-0.492-1.477-1.367-2.215-2.625-2.215c-1.24,0-2.124,0.729-2.652,2.188c-0.492,1.459-0.738,4.002-0.738,7.629
			c0,3.628,0.246,6.162,0.738,7.602c0.528,1.459,1.412,2.188,2.652,2.188c1.239,0,2.105-0.72,2.598-2.16
			C46.884,72.562,47.14,70.073,47.14,66.445z"/>
		<path fill="#FFFFFF" d="M80.12,66.582c0,9.57-2.963,14.355-8.887,14.355c-5.925,0-8.887-4.857-8.887-14.574
			c0-9.752,2.953-14.629,8.859-14.629c1.531,0,2.857,0.292,3.979,0.875c1.121,0.584,2.046,1.486,2.775,2.707
			c0.729,1.222,1.271,2.762,1.627,4.621S80.12,64.012,80.12,66.582z M74.706,66.445c0-3.719-0.246-6.307-0.738-7.766
			c-0.492-1.477-1.367-2.215-2.625-2.215c-1.24,0-2.124,0.729-2.652,2.188c-0.492,1.459-0.738,4.002-0.738,7.629
			c0,3.628,0.246,6.162,0.738,7.602c0.528,1.459,1.412,2.188,2.652,2.188c1.239,0,2.105-0.72,2.598-2.16
			C74.45,72.562,74.706,70.073,74.706,66.445z"/>
		<path fill="#FFFFFF" d="M91.553,44.27h5.223v7.93h2.844v4.156h-2.844V80.5h-5.223V56.355h-2.871v-4.156h2.871V44.27z"/>
	</g>
	<g enable-background="new    ">
		<path fill="#FFFFFF" d="M174.48,101.988l9.797,7.793l-12.246,17.07L184.277,146h-16.922l-5.418-8.906
			c-5.641,6.383-12.197,9.574-19.668,9.574c-6.977,0-13.038-2.721-18.184-8.164c-5.047-5.492-7.57-12.048-7.57-19.668
			c0-5.146,1.188-9.994,3.562-14.547c2.375-4.602,6.506-9.92,12.395-15.957c-6.136-9.697-9.203-18.777-9.203-27.238
			c0-6.283,2.078-11.479,6.234-15.586c4.205-4.057,9.549-6.086,16.031-6.086c6.531,0,11.751,1.881,15.66,5.641
			c3.958,3.811,5.938,8.758,5.938,14.844c0,5.195-1.213,9.896-3.637,14.102c-1.139,2.078-2.82,4.49-5.047,7.236
			s-5.047,5.826-8.461,9.24l15.141,24.789L174.48,101.988z M139.598,100.133c-5.74,6.334-8.609,12.271-8.609,17.812
			c0,4.453,1.262,8.189,3.785,11.207c2.523,3.068,5.566,4.602,9.129,4.602c3.958,0,7.842-2.424,11.652-7.273L139.598,100.133z
			 M143.68,79.055c2.127-2.227,3.908-4.193,5.344-5.9c1.435-1.707,2.523-3.203,3.266-4.49c1.533-2.572,2.301-5.368,2.301-8.387
			c0-2.82-0.742-5.059-2.227-6.717c-1.484-1.657-3.439-2.486-5.863-2.486c-2.523,0-4.701,0.99-6.531,2.969
			c-1.781,1.93-2.672,4.23-2.672,6.902C137.297,64.756,139.424,70.792,143.68,79.055z"/>
	</g>
	<g enable-background="new    ">
		<path fill="#FFFFFF" d="M26.443,103.965v5.113c-1.458-0.711-2.68-1.066-3.664-1.066c-1.349,0-2.507,0.333-3.473,0.998
			c-0.966,0.666-1.764,1.691-2.393,3.076c-0.629,1.386-1.094,3.141-1.395,5.264c-0.301,2.124-0.451,4.635-0.451,7.533
			c0,10.428,2.67,15.641,8.012,15.641c0.93,0,2.051-0.291,3.363-0.875v5.223c-1.367,0.766-2.898,1.148-4.594,1.148
			c-8.55,0-12.824-6.981-12.824-20.945c0-7.547,1.043-13.161,3.131-16.844c2.087-3.682,5.282-5.523,9.584-5.523
			C23.326,102.707,24.894,103.127,26.443,103.965z"/>
		<path fill="#FFFFFF" d="M32.888,117.199h5.223v3.527c0.893-1.494,1.777-2.543,2.652-3.145s2.032-0.947,3.473-1.039v5.469
			c-0.365-0.055-0.675-0.082-0.93-0.082c-1.878,0-3.218,0.483-4.02,1.449c-0.784,0.948-1.176,2.607-1.176,4.977V145.5h-5.223
			V117.199z"/>
		<path fill="#FFFFFF" d="M66.293,117.199V145.5H61.07v-3.637c-0.748,1.55-1.495,2.616-2.242,3.199
			c-0.748,0.583-1.732,0.875-2.953,0.875c-2.352,0-4.074-1.203-5.168-3.609s-1.641-6.18-1.641-11.32
			c0-4.903,0.547-8.508,1.641-10.814c1.094-2.306,2.816-3.459,5.168-3.459c2.15,0,3.883,1.222,5.195,3.664v-3.199H66.293z
			 M54.48,131.227c0,3.719,0.246,6.316,0.738,7.793c0.51,1.477,1.403,2.215,2.68,2.215c1.166,0,2.014-0.766,2.543-2.297
			c0.528-1.641,0.793-4.165,0.793-7.574c0-3.427-0.265-5.961-0.793-7.602c-0.529-1.531-1.377-2.297-2.543-2.297
			c-1.24,0-2.124,0.729-2.652,2.188C54.735,125.002,54.48,127.526,54.48,131.227z"/>
		<path fill="#FFFFFF" d="M72.19,117.199h2.625v-9.871c0-3.227,0.474-5.505,1.422-6.836c0.947-1.331,2.598-1.996,4.949-1.996
			c1.021,0,2.205,0.246,3.555,0.738v5.523c-0.839-0.455-1.577-0.684-2.215-0.684c-0.894,0-1.527,0.265-1.9,0.793
			c-0.374,0.529-0.561,1.422-0.561,2.68l-0.027,2.133v7.52h4.43v4.156h-4.43V145.5h-5.223v-24.145H72.19V117.199z"/>
		<path fill="#FFFFFF" d="M91.842,109.27h5.223v7.93h2.844v4.156h-2.844V145.5h-5.223v-24.145h-2.871v-4.156h2.871V109.27z"/>
	</g>
</g>
</svg>
