<?xml version="1.0" encoding="utf-8"?>
<!-- Generator: Adobe Illustrator 16.0.0, SVG Export Plug-In . SVG Version: 6.00 Build 0)  -->
<!DOCTYPE svg PUBLIC "-//W3C//DTD SVG 1.1//EN" "http://www.w3.org/Graphics/SVG/1.1/DTD/svg11.dtd">
<svg version="1.1" id="Calque_1" xmlns="http://www.w3.org/2000/svg" xmlns:xlink="http://www.w3.org/1999/xlink" x="0px" y="0px"
	 width="50px" height="50px" viewBox="0 0 50 50" enable-background="new 0 0 50 50" xml:space="preserve">
<path fill-rule="evenodd" clip-rule="evenodd" fill="#3D3D3D" d="M8.93,22.494c-1.158,1.85-0.734,3.648-0.355,5.298
	c1.328,5.78,4.584,10.2,9.971,12.794c1.67,0.803,2.371,1.694,1.782,3.455C11.712,42.396,3.09,33.153,1.824,24.245
	c-0.513-3.612-0.48-7.168,0.706-10.65C4.3,8.396,8.47,5.278,13.388,5.435c4.105,0.132,7.777,3.415,8.735,7.812
	c0.908,4.167-1.212,8.753-4.903,10.465c-2.252,1.045-4.502,0.844-6.684-0.282C10.059,23.183,9.605,22.889,8.93,22.494z"/>
<path fill-rule="evenodd" clip-rule="evenodd" fill="#3D3D3D" d="M34.9,22.708c-0.017,1.438-0.265,2.919-0.01,4.309
	c1.141,6.209,4.54,10.856,10.224,13.632c1.66,0.809,2.112,1.753,1.625,3.375c-12.565-2.571-21.525-17.195-18.071-29.49
	c1.633-5.811,6.146-9.391,11.465-9.09c3.867,0.218,7.654,3.679,8.451,7.724c0.865,4.396-1.25,8.924-5.012,10.591
	c-2.85,1.262-5.472,0.524-7.949-1.147C35.383,22.643,35.141,22.675,34.9,22.708z"/>
</svg>
